<svg version="1.1" id="Layer_1" xmlns="http://www.w3.org/2000/svg" xmlns:xlink="http://www.w3.org/1999/xlink" x="0px" y="0px"
	 width="100%" viewBox="0 0 1064 785" enable-background="new 0 0 1064 785" xml:space="preserve">
<path fill="#FFFFFF" opacity="1.000000" stroke="none" 
	d="
M469.000000,786.000000 
	C431.312439,786.000000 393.624878,786.000000 355.582886,785.633057 
	C364.990784,783.466675 375.082245,774.443420 374.471252,769.175171 
	C366.122650,768.761292 366.222595,768.922241 358.647400,773.625671 
	C356.000153,775.269348 352.805267,776.477417 349.725372,776.900146 
	C336.861938,778.665833 324.787872,765.470703 326.911530,751.799805 
	C328.156433,743.786133 332.365997,737.977783 339.180908,734.498535 
	C346.213562,730.908203 354.295044,731.356628 359.765045,736.769897 
	C364.819489,741.771790 369.958557,740.753174 375.591614,740.968628 
	C368.913696,722.978943 344.580200,719.830627 331.722595,727.838074 
	C319.732269,735.305542 315.157806,746.566772 317.172241,760.126221 
	C318.312653,767.802490 321.759949,774.794312 328.768127,779.392151 
	C331.696655,781.313416 334.266846,783.780884 337.000000,786.000000 
	C322.645782,786.000000 308.291534,786.000000 293.559265,785.654785 
	C301.676422,781.502441 305.651947,775.129150 304.948212,765.942505 
	C304.409851,758.914185 302.038116,753.118958 291.896606,749.920654 
	C288.709015,748.915405 285.629913,747.451599 282.664429,745.888062 
	C279.563599,744.253357 277.876953,741.234436 279.183594,738.036194 
	C280.298767,735.306396 282.409576,732.958313 286.267303,732.901917 
	C291.938904,732.818970 293.019714,736.939392 294.441895,740.746033 
	C297.700592,740.746033 300.806122,740.746033 305.367462,740.746033 
	C303.180542,736.338318 301.787811,732.407776 299.474060,729.126709 
	C295.849945,723.987427 290.196411,723.736877 284.413513,723.945618 
	C277.342865,724.200806 270.529999,729.318542 269.227936,736.688538 
	C268.015198,743.553101 269.435211,750.664246 277.077515,754.550903 
	C281.508423,756.804260 286.126617,758.692688 290.533173,760.989746 
	C295.989380,763.833984 296.718018,767.923645 293.042755,773.578796 
	C290.485657,777.513245 284.356262,778.650940 280.906189,775.150330 
	C278.599365,772.809814 277.444763,769.333801 275.664795,766.170776 
	C273.246735,766.170776 270.277496,766.170776 266.313812,766.170776 
	C267.700256,770.294434 268.501129,774.225891 270.315002,777.615234 
	C271.973907,780.714905 274.728363,783.228271 277.000000,786.000000 
	C246.645767,786.000000 216.291550,786.000000 185.572800,785.641602 
	C202.458389,780.365967 208.693512,765.246094 207.608597,755.200134 
	C195.208359,755.200134 182.791809,755.200134 170.193405,755.200134 
	C170.193405,757.803772 170.193405,760.206787 170.193405,763.000000 
	C174.667236,763.000000 178.959274,763.000000 183.251312,763.000000 
	C187.672394,763.000000 192.093475,763.000000 196.974640,763.000000 
	C193.169312,771.244629 187.455048,776.001526 178.751907,777.017517 
	C165.335022,778.583679 155.119827,765.023254 155.927429,753.629456 
	C156.582413,744.388794 161.258530,738.178467 169.271606,734.353821 
	C176.238571,731.028442 183.728897,731.830322 188.906433,736.900635 
	C193.683472,741.578735 198.431595,740.953125 203.861664,740.861877 
	C203.806412,740.167542 203.906921,739.624634 203.710983,739.228271 
	C195.039413,721.682068 169.775513,719.332275 156.800720,730.674500 
	C140.746765,744.708557 142.319916,772.213318 162.512833,783.000427 
	C163.573364,783.566956 164.181335,784.980713 165.000000,786.000000 
	C146.645767,786.000000 128.291550,786.000000 109.586136,785.630249 
	C125.119644,782.215820 135.110123,767.298157 133.821030,752.584656 
	C133.021088,743.454163 128.916748,735.638184 121.287346,729.574890 
	C111.283554,721.624756 92.063148,722.033813 82.258308,730.232239 
	C66.934181,743.045776 66.622963,768.183960 83.481560,779.985901 
	C86.329018,781.979187 89.160934,783.994690 92.000015,786.000000 
	C61.716255,786.000000 31.432514,786.000000 1.000000,786.000000 
	C1.000000,727.312500 1.000000,668.624939 1.365874,609.568359 
	C2.155737,610.042297 2.729941,610.842773 2.981529,611.734375 
	C7.924920,629.252258 17.715879,643.404785 32.958054,653.358154 
	C50.708172,664.949280 69.961983,668.850586 90.987900,664.125427 
	C108.869904,660.106812 122.510582,650.054382 133.392227,635.933960 
	C137.134018,631.078491 139.664520,625.289612 143.280594,619.001709 
	C127.856598,619.001709 113.901169,618.960510 99.947159,619.081848 
	C98.859581,619.091309 97.544365,620.017578 96.736031,620.889526 
	C87.820442,630.506653 76.658470,631.833740 64.846558,628.832092 
	C53.196999,625.871643 44.180737,615.825806 43.204250,605.000000 
	C45.046875,605.000000 46.862759,605.000000 48.678646,605.000000 
	C80.009232,605.000000 111.340149,604.931763 142.670013,605.083069 
	C146.766983,605.102844 148.435562,604.086914 148.064682,599.772888 
	C147.486847,593.051147 148.008362,586.177551 146.878952,579.570923 
	C142.788696,555.644531 130.366364,537.215515 108.575211,526.058655 
	C90.002556,516.549622 70.424484,515.093689 50.578968,521.908081 
	C32.195946,528.220215 18.156149,539.918823 9.331873,557.359131 
	C6.128408,563.690430 3.753143,570.440796 1.000001,577.000000 
	C1.000000,385.077454 1.000000,193.154877 1.000000,1.000000 
	C170.020828,1.000000 339.041748,1.000000 508.350372,1.398026 
	C494.081818,3.698046 479.331818,4.684546 465.014252,7.714418 
	C442.974640,12.378428 422.149384,20.659630 402.417542,31.787966 
	C385.624115,41.259083 369.738403,51.998646 355.696930,65.092049 
	C344.832397,75.223030 334.669342,86.223351 325.092682,97.593758 
	C305.807190,120.491592 291.924042,146.558609 281.661011,174.659180 
	C272.790527,198.946930 267.679352,224.063110 266.209167,249.721954 
	C264.834106,273.721313 266.824615,297.593262 271.780975,321.317017 
	C277.398987,348.208008 287.501373,373.213043 300.120300,397.372833 
	C301.264801,399.564117 302.880310,401.128387 306.167175,401.118286 
	C360.326569,400.951874 414.486603,401.001923 468.646515,400.985046 
	C469.631195,400.984741 470.615784,400.760345 472.391418,400.544281 
	C471.076538,399.696167 470.571167,399.291779 470.003510,399.015381 
	C448.440613,388.516968 430.518433,373.657532 415.994720,354.552795 
	C398.113983,331.032166 388.402496,304.397125 386.138641,275.164825 
	C384.841553,258.415955 387.086731,241.864624 391.677399,225.584000 
	C401.310760,191.419373 420.992828,164.474670 449.629791,143.944626 
	C470.606110,128.906570 494.131561,120.906403 519.971008,120.023232 
	C532.657776,119.589615 545.071899,121.862244 557.196777,125.199333 
	C564.993652,127.345245 572.424866,130.819473 581.042358,134.085831 
	C542.121399,173.002930 504.095886,211.024597 466.324127,248.792603 
	C494.529114,277.000214 522.745178,305.218842 551.021545,333.497864 
	C604.889893,279.623535 659.061768,225.387634 713.314575,171.232864 
	C724.948853,159.619614 736.857727,148.280884 748.688416,136.865707 
	C750.489624,135.127777 751.934631,133.593704 750.014465,131.029617 
	C739.684998,117.235825 729.968689,102.929489 718.887878,89.770836 
	C711.716736,81.255013 702.686401,74.271439 694.284302,66.832649 
	C678.395203,52.765228 660.607971,41.411884 641.917297,31.523903 
	C625.466797,22.821091 608.206726,15.981305 590.248352,10.980974 
	C572.477234,6.032782 554.467163,2.553627 535.968567,1.961890 
	C534.636841,1.919289 533.322449,1.333317 532.000000,0.999994 
	C709.598572,1.000000 887.197205,1.000000 1065.000000,1.000000 
	C1065.000000,203.687515 1065.000000,406.375092 1064.634888,609.432129 
	C1061.692505,604.874268 1059.808594,599.391541 1056.397827,595.131592 
	C1048.577026,585.364014 1037.232910,581.366699 1025.605835,577.910645 
	C1017.034058,575.362732 1008.636719,572.179016 1000.288391,568.950684 
	C996.432983,567.459839 994.061890,564.018250 995.205566,559.970947 
	C995.926453,557.419922 998.206543,554.655762 1000.547668,553.336914 
	C1007.968018,549.156738 1016.353149,553.320679 1018.673523,561.657959 
	C1032.469482,561.657959 1046.203857,561.657959 1060.260498,561.657959 
	C1058.620972,545.320557 1051.466064,532.761353 1037.220825,525.120178 
	C1024.393311,518.239502 1010.614868,516.869568 996.098755,518.847656 
	C976.771545,521.481262 955.579834,535.149414 952.381104,556.171753 
	C950.720764,567.083923 952.138672,577.430969 960.267212,585.699768 
	C971.451477,597.076965 986.502747,600.920471 1000.892090,606.011047 
	C1007.546509,608.365173 1014.735718,609.985596 1019.327454,615.929321 
	C1023.236328,620.989136 1023.229004,624.448669 1017.894409,628.491943 
	C1007.908936,636.060425 997.070007,632.386414 992.262207,620.165161 
	C978.273254,620.165161 964.304626,620.165161 950.033875,620.165161 
	C950.033875,621.279297 949.908508,622.252502 950.068909,623.176086 
	C950.231873,624.114929 950.803101,624.981079 950.978943,625.919678 
	C954.015991,642.127747 963.281311,654.047913 978.094604,660.319458 
	C999.836060,669.524170 1021.784485,668.870667 1042.677490,656.972046 
	C1053.167725,650.997864 1060.490112,642.312988 1063.022827,630.145996 
	C1063.658325,627.092407 1064.339600,624.048401 1065.000000,621.000000 
	C1065.000000,675.916077 1065.000000,730.832092 1065.000000,786.000000 
	C1024.646118,786.000000 984.291748,786.000000 943.574524,785.640503 
	C950.343323,783.833740 954.689758,779.294983 955.899170,772.379028 
	C957.723877,761.944275 954.937378,755.691833 947.267517,751.779785 
	C943.149597,749.679382 938.846191,747.928955 934.570435,746.155884 
	C931.246094,744.777283 929.328491,742.101990 930.196045,738.907654 
	C931.133057,735.457764 933.346558,732.715454 937.973083,732.892334 
	C943.477905,733.102783 944.884033,736.593506 945.362183,740.811890 
	C948.756958,740.811890 951.714233,740.811890 955.767090,740.811890 
	C954.734680,737.394836 954.255310,734.215820 952.863037,731.505798 
	C949.040466,724.065857 942.059143,723.679077 934.810120,723.966797 
	C929.004700,724.197266 922.707703,728.959229 921.110107,734.654663 
	C919.062134,741.955811 921.180359,749.971558 926.570312,753.055786 
	C931.256836,755.737549 936.349182,757.706482 941.243530,760.029724 
	C944.879028,761.755249 947.318848,764.633301 946.610046,768.681702 
	C945.547974,774.747742 942.423340,777.135559 937.083435,776.999939 
	C932.924561,776.894409 929.970764,773.787842 928.872559,769.155396 
	C928.578674,767.915894 926.888489,766.470947 925.578552,766.134033 
	C923.594177,765.623535 921.381592,766.000671 919.309204,766.000671 
	C918.718201,773.635620 919.604919,776.062744 924.358704,780.880554 
	C925.975159,782.518677 927.456787,784.289734 929.000000,786.000000 
	C917.979126,786.000000 906.958191,786.000000 895.563110,785.650879 
	C902.470032,782.454163 906.469116,777.248779 907.028076,769.338806 
	C907.648682,760.556458 904.399475,754.150330 896.136108,750.614075 
	C892.471680,749.045837 888.661682,747.770874 885.129761,745.951294 
	C880.251526,743.438110 879.216064,738.984009 882.943054,735.804810 
	C884.810486,734.211853 887.790222,733.073792 890.212463,733.165588 
	C894.582642,733.331116 895.899719,737.019897 896.260437,740.771362 
	C899.677063,740.771362 902.789001,740.771362 905.893982,740.771362 
	C906.030457,730.636963 898.040771,722.851074 887.499512,723.849854 
	C879.491089,724.608643 872.830322,728.758179 871.270813,736.562317 
	C870.040405,742.719666 871.646912,751.933960 880.261047,755.066467 
	C884.155151,756.482544 887.867188,758.392395 891.695679,759.997559 
	C895.722717,761.685974 898.160950,765.821533 896.890015,770.379089 
	C895.815002,774.234436 893.485474,777.189270 888.656555,777.051208 
	C882.970215,776.888672 879.975891,773.875488 878.541626,766.179993 
	C875.431702,766.179993 872.309998,766.179993 869.415894,766.179993 
	C869.528442,775.905457 873.749634,782.720947 883.000000,786.000000 
	C869.312439,786.000000 855.624878,786.000000 841.573181,785.641724 
	C847.967407,783.445740 853.538025,779.563477 853.817871,772.355957 
	C854.425476,756.706543 854.005310,741.017212 854.005310,725.222107 
	C851.481812,725.222107 848.410950,725.222107 845.511169,725.222107 
	C845.247803,725.573303 845.066528,725.702148 845.066223,725.831421 
	C845.035339,738.993286 844.744934,752.162720 845.108032,765.314026 
	C845.308228,772.565613 840.031433,777.222168 834.447083,777.039978 
	C828.476868,776.845154 824.044067,772.102539 824.013245,765.333069 
	C823.963867,754.503540 824.000000,743.673584 824.000000,732.843811 
	C824.000000,730.252686 824.000000,727.661621 824.000000,725.345642 
	C820.245239,725.345642 817.170227,725.345642 814.000000,725.345642 
	C814.000000,738.679016 813.981812,751.667114 814.006836,764.655029 
	C814.021790,772.415100 816.333740,778.994141 823.467957,783.187622 
	C824.257080,783.651428 824.502441,785.040222 825.000000,786.000000 
	C737.979126,786.000000 650.958191,786.000000 563.572815,785.641602 
	C564.084412,784.863220 564.924194,784.326355 565.842163,784.040955 
	C577.625793,780.377686 584.076416,771.703308 585.794678,760.194275 
	C587.667725,747.648010 583.591980,736.900330 572.893616,728.902893 
	C563.113464,721.591858 541.274109,722.185181 531.368652,733.594788 
	C522.736450,743.537781 521.478638,761.155579 528.139771,771.701233 
	C532.884216,779.212341 540.085266,783.035339 548.000000,786.000000 
	C527.645752,786.000000 507.291534,786.000000 486.590668,785.626343 
	C503.393982,782.686707 514.369568,764.747498 510.261078,748.801147 
	C505.658630,730.937622 496.238525,724.185852 477.836945,723.944580 
	C461.419769,723.729370 448.634155,737.506775 448.154083,753.558777 
	C447.758942,766.769897 453.727905,776.948303 465.902985,783.046570 
	C467.122467,783.657410 467.976410,784.998108 469.000000,786.000000 
M648.000000,608.500000 
	C648.000000,626.258545 648.000000,644.017151 648.000000,661.719849 
	C662.300476,661.719849 676.035889,661.719849 690.000000,661.719849 
	C690.000000,637.307434 689.948059,613.174316 690.045776,589.041687 
	C690.064331,584.461060 690.254272,579.802734 691.104858,575.320618 
	C692.725098,566.783081 696.761902,559.899658 706.239807,558.364319 
	C709.812073,557.785645 713.551208,557.791016 717.173950,558.064392 
	C724.363647,558.607056 730.576355,561.189941 733.058167,568.655884 
	C734.462158,572.879517 735.824829,577.367371 735.871338,581.750366 
	C736.136536,606.737549 736.000000,631.729004 736.000000,656.718994 
	C736.000000,658.462097 736.000000,660.205261 736.000000,661.635986 
	C750.803467,661.635986 764.874756,661.635986 778.000000,661.635986 
	C778.000000,629.366760 778.388550,597.457764 777.851746,565.564331 
	C777.538147,546.932007 765.335876,529.345215 746.579285,523.039368 
	C732.486816,518.301575 718.092468,517.732056 703.223389,518.687561 
	C690.440735,519.509094 679.370300,523.585327 668.977966,529.963562 
	C667.287231,528.908203 665.828430,527.871399 664.260864,527.039795 
	C654.867859,522.056946 645.038635,519.519714 634.242981,518.655457 
	C621.653748,517.647522 609.347656,518.202881 597.339478,521.221313 
	C587.553284,523.681213 578.594299,528.087585 571.672424,536.461304 
	C561.949402,548.223816 559.075562,561.719116 559.026062,576.263672 
	C558.934753,603.085999 559.000000,629.908813 559.000000,656.731445 
	C559.000000,658.354187 559.000000,659.976868 559.000000,661.796509 
	C573.454102,661.796509 587.521851,661.796509 602.000000,661.796509 
	C602.000000,660.004333 602.000000,658.384521 602.000000,656.764709 
	C602.000000,631.608093 601.594543,606.442261 602.170044,581.298828 
	C602.460327,568.613708 605.879761,561.439270 616.962219,558.651062 
	C620.245850,557.824951 623.826050,558.070618 627.273193,558.020386 
	C639.866943,557.836792 646.107849,566.384277 646.902222,576.771240 
	C647.683167,586.982483 647.666626,597.254578 648.000000,608.500000 
M407.000000,587.500000 
	C407.000000,566.075867 407.000000,544.651794 407.000000,523.276489 
	C392.365723,523.276489 378.294128,523.276489 363.812073,523.276489 
	C363.812073,527.557800 363.812073,531.573120 363.812073,534.651550 
	C359.465454,531.229553 355.347412,526.852600 350.312103,524.250854 
	C338.459137,518.126404 325.798859,516.882080 312.452423,518.846436 
	C293.791718,521.593140 278.527710,530.129456 267.667450,545.100037 
	C252.352661,566.211060 249.529724,589.997803 255.975388,615.051941 
	C260.108612,631.117737 268.769165,644.082642 282.278992,653.787231 
	C295.336365,663.166931 309.956329,666.597534 325.881042,666.089661 
	C336.857300,665.739563 346.994232,663.355164 355.804077,656.627014 
	C358.636536,654.463867 361.116089,651.838623 364.236633,648.986450 
	C364.236633,653.651184 364.236633,657.730469 364.236633,661.705811 
	C378.662048,661.705811 392.731079,661.705811 407.000000,661.705811 
	C407.000000,637.108154 407.000000,612.804077 407.000000,587.500000 
M845.000000,593.495605 
	C845.000000,570.071777 845.000000,546.647949 845.000000,523.281982 
	C830.363953,523.281982 816.294556,523.281982 802.000000,523.281982 
	C802.000000,548.698120 801.821350,573.834961 802.091614,598.967041 
	C802.193726,608.462036 802.443481,618.115723 804.213379,627.394226 
	C806.724182,640.557617 814.176270,650.948364 825.866150,657.992004 
	C837.999817,665.303040 851.647522,666.162476 865.218445,666.884705 
	C871.599121,667.224304 878.081909,666.652954 884.452820,665.921936 
	C893.265747,664.910828 901.855530,662.818420 909.491638,657.978516 
	C925.726196,647.688904 932.858093,632.449585 932.959900,613.693237 
	C933.113586,585.369995 933.000000,557.045227 933.000000,528.721130 
	C933.000000,526.935852 933.000000,525.150513 933.000000,523.209778 
	C918.844055,523.209778 905.108826,523.209778 891.000000,523.209778 
	C891.000000,525.037964 891.000000,526.662415 891.000000,528.286804 
	C891.000000,551.279297 891.169495,574.273987 890.883789,597.262878 
	C890.809998,603.201477 890.107361,609.382141 888.284058,614.993591 
	C885.109436,624.763794 872.617859,629.468811 861.095093,626.730835 
	C852.287292,624.638062 847.299194,619.379456 846.074829,610.677490 
	C845.323547,605.338013 845.332458,599.891479 845.000000,593.495605 
M623.958740,383.539795 
	C615.035461,389.128082 606.112122,394.716400 596.078552,401.000000 
	C598.889709,401.000000 600.624878,401.000000 602.359985,401.000000 
	C654.684021,401.000000 707.008667,400.888458 759.331238,401.163452 
	C764.883911,401.192596 767.510742,399.080688 769.834106,394.637756 
	C780.435242,374.365601 788.925903,353.290833 794.420593,331.066406 
	C796.024109,324.580719 797.148438,317.976501 798.579895,311.000305 
	C757.552185,311.000305 717.743042,310.969208 677.934753,311.137238 
	C676.623840,311.142761 674.802856,312.907898 674.096924,314.298248 
	C668.402039,325.513824 663.794067,337.385468 657.149963,347.988922 
	C648.608032,361.621216 637.431091,373.269379 623.958740,383.539795 
M541.570312,623.944336 
	C543.305908,606.406738 536.912781,593.079590 521.567322,585.456787 
	C512.468079,580.936768 502.336121,578.521973 492.743103,574.959717 
	C486.919983,572.797363 481.022278,570.659668 475.560303,567.754639 
	C470.842773,565.245544 470.629639,557.868774 474.815979,554.739563 
	C480.671753,550.362610 494.068054,550.227783 495.590759,562.000000 
	C502.383118,562.000000 509.202606,562.000000 516.022095,562.000000 
	C522.968750,562.000000 529.915344,562.000000 537.199402,562.000000 
	C536.486267,547.306946 530.294495,536.022461 518.877441,528.097473 
	C505.183075,518.591675 489.791809,516.665100 473.346283,518.852844 
	C454.650726,521.339844 432.796356,534.359497 429.388489,557.025818 
	C427.692017,568.309631 430.806091,580.884827 441.218658,589.113586 
	C450.551361,596.488953 461.470795,600.059265 472.331940,604.052002 
	C479.665070,606.747742 487.100250,609.436279 493.931366,613.154175 
	C501.345062,617.189209 500.605621,626.251465 493.104797,629.994812 
	C482.590179,635.242126 473.301971,631.392151 469.410614,620.271851 
	C455.282806,620.271851 441.196625,620.271851 425.794586,620.271851 
	C428.675598,627.765076 430.509125,635.032043 434.078522,641.312439 
	C442.234863,655.663757 455.425751,662.798035 471.556000,665.029541 
	C491.610992,667.803955 510.382263,665.597961 526.644958,652.076416 
	C535.310486,644.871460 540.196045,635.890381 541.570312,623.944336 
M242.303589,557.995911 
	C242.867920,557.393799 243.920090,556.795288 243.924683,556.188904 
	C244.020050,543.584229 243.996582,530.978699 243.996582,517.545288 
	C233.281448,518.388367 222.899979,518.444519 212.804489,520.171936 
	C196.290451,522.997742 183.742493,531.818420 175.892288,547.138977 
	C170.869980,556.940552 170.390961,567.509766 170.178345,577.906555 
	C169.640625,604.198608 170.000000,630.508972 170.000000,656.812012 
	C170.000000,658.426453 170.000000,660.040955 170.000000,661.792358 
	C184.501755,661.792358 198.562012,661.792358 213.000000,661.792358 
	C213.000000,659.968384 213.000000,658.345825 213.000000,656.723328 
	C213.000000,633.749756 212.948013,610.776001 213.045456,587.802856 
	C213.064133,583.399475 213.022202,578.826538 214.135651,574.631042 
	C216.777954,564.674622 217.992355,561.625427 228.688843,559.097595 
	C232.766296,558.133972 237.118118,558.331421 242.303589,557.995911 
M740.066589,757.542725 
	C738.513184,755.778442 736.959839,754.014099 735.388672,752.229614 
	C740.067810,747.708313 741.237976,742.002319 738.839355,735.637146 
	C736.631653,729.778687 732.538513,725.589661 726.147400,725.118103 
	C719.250366,724.609253 712.286743,725.002991 705.347046,725.002991 
	C705.347046,745.257812 705.347046,765.081177 705.347046,785.000000 
	C712.339050,785.000000 718.993591,785.227722 725.627441,784.954468 
	C741.267212,784.310059 747.118347,770.114075 740.066589,757.542725 
M787.385071,784.877319 
	C791.105225,784.877319 794.825439,784.877319 799.349976,784.877319 
	C793.704468,777.312073 788.505615,770.345398 783.309265,763.381042 
	C784.132874,762.942383 784.909485,762.331177 785.787415,762.091919 
	C794.427246,759.737610 798.510193,754.651306 799.068298,746.667725 
	C799.862549,735.306030 794.845886,727.051453 786.573669,726.055115 
	C777.519165,724.964539 768.323364,725.047302 759.285522,724.623291 
	C759.285522,745.355469 759.285522,765.082092 759.285522,784.713135 
	C762.318115,784.713135 765.055603,784.713135 768.177490,784.713135 
	C768.177490,776.095581 768.177490,767.757996 768.177490,758.691528 
	C769.142395,759.751343 769.603088,760.165955 769.955627,760.658081 
	C775.588928,768.520264 781.208374,776.392395 787.385071,784.877319 
M390.000000,746.500122 
	C390.000000,759.264893 390.000000,772.029602 390.000000,784.716309 
	C393.640015,784.716309 396.714233,784.716309 400.169983,784.716309 
	C400.169983,776.028442 400.169983,767.617798 400.169983,759.286133 
	C407.977631,759.286133 415.382660,759.286133 423.172241,759.286133 
	C423.172241,767.980591 423.172241,776.394226 423.172241,784.712891 
	C426.646637,784.712891 429.721100,784.712891 432.720520,784.712891 
	C432.720520,764.686646 432.720520,744.948853 432.720520,725.283447 
	C429.360443,725.283447 426.286224,725.283447 422.830292,725.283447 
	C422.830292,733.637878 422.830292,741.715576 422.830292,749.713989 
	C415.022522,749.713989 407.617493,749.713989 399.827759,749.713989 
	C399.827759,741.352844 399.827759,733.271423 399.827759,725.287231 
	C396.353271,725.287231 393.278809,725.287231 390.000000,725.287231 
	C390.000000,732.214783 390.000000,738.857483 390.000000,746.500122 
M12.000000,758.500000 
	C12.000000,767.267212 12.000000,776.034424 12.000000,784.713989 
	C15.644173,784.713989 18.718632,784.713989 22.174652,784.713989 
	C22.174652,776.023682 22.174652,767.612610 22.174652,759.288940 
	C30.316513,759.288940 38.054764,759.288940 46.176773,759.288940 
	C46.176773,767.987732 46.176773,776.403198 46.176773,784.711121 
	C49.317856,784.711121 52.055412,784.711121 54.719769,784.711121 
	C54.719769,764.681824 54.719769,744.942627 54.719769,725.284058 
	C51.691444,725.284058 48.954014,725.284058 45.830887,725.284058 
	C45.830887,733.638855 45.830887,741.716614 45.830887,749.713318 
	C37.688278,749.713318 29.949917,749.713318 21.826147,749.713318 
	C21.826147,741.351257 21.826147,733.269531 21.826147,725.288391 
	C18.351145,725.288391 15.276533,725.288391 12.000000,725.288391 
	C12.000000,736.216919 12.000000,746.858459 12.000000,758.500000 
M249.396210,785.000000 
	C251.174332,785.000000 252.952469,785.000000 254.751144,785.000000 
	C254.751144,781.760620 254.751144,779.023438 254.751144,775.895874 
	C247.098495,775.895874 239.685455,775.895874 232.254669,775.895874 
	C232.254669,770.087402 232.254669,764.682617 232.254669,758.889282 
	C239.916718,758.889282 247.332245,758.889282 254.745956,758.889282 
	C254.745956,755.749512 254.745956,753.012695 254.745956,749.886414 
	C247.087891,749.886414 239.674500,749.886414 232.259598,749.886414 
	C232.259598,744.410339 232.259598,739.338501 232.259598,733.879517 
	C239.926041,733.879517 247.340332,733.879517 254.740692,733.879517 
	C254.740692,730.739380 254.740692,728.002625 254.740692,725.261169 
	C243.741959,725.261169 233.004669,725.261169 222.259140,725.261169 
	C222.259140,745.257935 222.259140,764.992432 222.259140,785.000000 
	C231.150345,785.000000 239.785233,785.000000 249.396210,785.000000 
M990.496338,785.000000 
	C995.266541,785.000000 1000.036743,785.000000 1004.715759,785.000000 
	C1004.715759,781.693237 1004.715759,778.954651 1004.715759,775.830811 
	C996.693909,775.830811 988.949707,775.830811 981.287292,775.830811 
	C981.287292,770.021118 981.287292,764.616638 981.287292,758.826416 
	C989.317749,758.826416 997.067566,758.826416 1004.712891,758.826416 
	C1004.712891,755.684937 1004.712891,752.945801 1004.712891,749.825562 
	C996.687805,749.825562 988.943054,749.825562 981.290161,749.825562 
	C981.290161,744.348633 981.290161,739.277222 981.290161,733.820801 
	C989.323853,733.820801 997.073730,733.820801 1004.709778,733.820801 
	C1004.709778,730.682068 1004.709778,727.943237 1004.709778,725.289795 
	C993.680664,725.289795 982.944092,725.289795 972.286133,725.289795 
	C972.286133,745.314636 972.286133,765.048462 972.286133,785.000000 
	C978.213013,785.000000 983.855469,785.000000 990.496338,785.000000 
M614.676453,775.999756 
	C611.223267,776.509216 612.014954,774.000854 612.012451,772.165344 
	C611.990784,756.551758 612.000000,740.938110 612.000000,725.227051 
	C608.472595,725.227051 605.401367,725.227051 602.230469,725.227051 
	C602.230469,745.192627 602.230469,764.930542 602.230469,784.769287 
	C612.203613,784.769287 621.944885,784.769287 631.769897,784.769287 
	C631.769897,781.797363 631.769897,779.060547 631.769897,776.000000 
	C626.247620,776.000000 620.948792,776.000000 614.676453,775.999756 
M1045.424561,776.000000 
	C1040.666382,776.000000 1035.908325,776.000000 1030.771362,776.000000 
	C1030.771362,758.625244 1030.771362,741.878052 1030.771362,725.317993 
	C1027.631592,725.317993 1024.890991,725.317993 1022.318237,725.317993 
	C1022.318237,745.374268 1022.318237,765.111084 1022.318237,784.685669 
	C1032.385376,784.685669 1042.131958,784.685669 1051.677246,784.685669 
	C1051.677246,781.624268 1051.677246,778.883972 1051.677246,776.000000 
	C1049.703247,776.000000 1048.051270,776.000000 1045.424561,776.000000 
z"/>
<path fill="#E30613" opacity="1.000000" stroke="none" 
	d="
M531.531372,0.999994 
	C533.322449,1.333317 534.636841,1.919289 535.968567,1.961890 
	C554.467163,2.553627 572.477234,6.032782 590.248352,10.980974 
	C608.206726,15.981305 625.466797,22.821091 641.917297,31.523903 
	C660.607971,41.411884 678.395203,52.765228 694.284302,66.832649 
	C702.686401,74.271439 711.716736,81.255013 718.887878,89.770836 
	C729.968689,102.929489 739.684998,117.235825 750.014465,131.029617 
	C751.934631,133.593704 750.489624,135.127777 748.688416,136.865707 
	C736.857727,148.280884 724.948853,159.619614 713.314575,171.232864 
	C659.061768,225.387634 604.889893,279.623535 551.021545,333.497864 
	C522.745178,305.218842 494.529114,277.000214 466.324127,248.792603 
	C504.095886,211.024597 542.121399,173.002930 581.042358,134.085831 
	C572.424866,130.819473 564.993652,127.345245 557.196777,125.199333 
	C545.071899,121.862244 532.657776,119.589615 519.971008,120.023232 
	C494.131561,120.906403 470.606110,128.906570 449.629791,143.944626 
	C420.992828,164.474670 401.310760,191.419373 391.677399,225.584000 
	C387.086731,241.864624 384.841553,258.415955 386.138641,275.164825 
	C388.402496,304.397125 398.113983,331.032166 415.994720,354.552795 
	C430.518433,373.657532 448.440613,388.516968 470.003510,399.015381 
	C470.571167,399.291779 471.076538,399.696167 472.391418,400.544281 
	C470.615784,400.760345 469.631195,400.984741 468.646515,400.985046 
	C414.486603,401.001923 360.326569,400.951874 306.167175,401.118286 
	C302.880310,401.128387 301.264801,399.564117 300.120300,397.372833 
	C287.501373,373.213043 277.398987,348.208008 271.780975,321.317017 
	C266.824615,297.593262 264.834106,273.721313 266.209167,249.721954 
	C267.679352,224.063110 272.790527,198.946930 281.661011,174.659180 
	C291.924042,146.558609 305.807190,120.491592 325.092682,97.593758 
	C334.669342,86.223351 344.832397,75.223030 355.696930,65.092049 
	C369.738403,51.998646 385.624115,41.259083 402.417542,31.787966 
	C422.149384,20.659630 442.974640,12.378428 465.014252,7.714418 
	C479.331818,4.684546 494.081818,3.698046 508.819031,1.398026 
	C516.354248,1.000000 523.708496,1.000000 531.531372,0.999994 
z"/>
<path fill="#000000" opacity="1.000000" stroke="none" 
	d="
M1.000001,577.468628 
	C3.753143,570.440796 6.128408,563.690430 9.331873,557.359131 
	C18.156149,539.918823 32.195946,528.220215 50.578968,521.908081 
	C70.424484,515.093689 90.002556,516.549622 108.575211,526.058655 
	C130.366364,537.215515 142.788696,555.644531 146.878952,579.570923 
	C148.008362,586.177551 147.486847,593.051147 148.064682,599.772888 
	C148.435562,604.086914 146.766983,605.102844 142.670013,605.083069 
	C111.340149,604.931763 80.009232,605.000000 48.678646,605.000000 
	C46.862759,605.000000 45.046875,605.000000 43.204250,605.000000 
	C44.180737,615.825806 53.196999,625.871643 64.846558,628.832092 
	C76.658470,631.833740 87.820442,630.506653 96.736031,620.889526 
	C97.544365,620.017578 98.859581,619.091309 99.947159,619.081848 
	C113.901169,618.960510 127.856598,619.001709 143.280594,619.001709 
	C139.664520,625.289612 137.134018,631.078491 133.392227,635.933960 
	C122.510582,650.054382 108.869904,660.106812 90.987900,664.125427 
	C69.961983,668.850586 50.708172,664.949280 32.958054,653.358154 
	C17.715879,643.404785 7.924920,629.252258 2.981529,611.734375 
	C2.729941,610.842773 2.155737,610.042297 1.365874,609.099731 
	C1.000000,598.645752 1.000000,588.291565 1.000001,577.468628 
M96.981476,562.471497 
	C86.112099,553.130798 73.924850,551.399048 60.832787,556.727356 
	C52.256313,560.217773 46.418697,566.426331 43.760715,575.845703 
	C64.568817,575.845703 84.659264,575.845703 106.417038,575.845703 
	C103.032074,570.971985 100.262138,566.983826 96.981476,562.471497 
z"/>
<path fill="#000000" opacity="1.000000" stroke="none" 
	d="
M1065.000000,620.541931 
	C1064.339600,624.048401 1063.658325,627.092407 1063.022827,630.145996 
	C1060.490112,642.312988 1053.167725,650.997864 1042.677490,656.972046 
	C1021.784485,668.870667 999.836060,669.524170 978.094604,660.319458 
	C963.281311,654.047913 954.015991,642.127747 950.978943,625.919678 
	C950.803101,624.981079 950.231873,624.114929 950.068909,623.176086 
	C949.908508,622.252502 950.033875,621.279297 950.033875,620.165161 
	C964.304626,620.165161 978.273254,620.165161 992.262207,620.165161 
	C997.070007,632.386414 1007.908936,636.060425 1017.894409,628.491943 
	C1023.229004,624.448669 1023.236328,620.989136 1019.327454,615.929321 
	C1014.735718,609.985596 1007.546509,608.365173 1000.892090,606.011047 
	C986.502747,600.920471 971.451477,597.076965 960.267212,585.699768 
	C952.138672,577.430969 950.720764,567.083923 952.381104,556.171753 
	C955.579834,535.149414 976.771545,521.481262 996.098755,518.847656 
	C1010.614868,516.869568 1024.393311,518.239502 1037.220825,525.120178 
	C1051.466064,532.761353 1058.620972,545.320557 1060.260498,561.657959 
	C1046.203857,561.657959 1032.469482,561.657959 1018.673523,561.657959 
	C1016.353149,553.320679 1007.968018,549.156738 1000.547668,553.336914 
	C998.206543,554.655762 995.926453,557.419922 995.205566,559.970947 
	C994.061890,564.018250 996.432983,567.459839 1000.288391,568.950684 
	C1008.636719,572.179016 1017.034058,575.362732 1025.605835,577.910645 
	C1037.232910,581.366699 1048.577026,585.364014 1056.397827,595.131592 
	C1059.808594,599.391541 1061.692505,604.874268 1064.634888,609.900818 
	C1065.000000,613.361267 1065.000000,616.722595 1065.000000,620.541931 
z"/>
<path fill="#000000" opacity="1.000000" stroke="none" 
	d="
M165.468414,786.000000 
	C164.181335,784.980713 163.573364,783.566956 162.512833,783.000427 
	C142.319916,772.213318 140.746765,744.708557 156.800720,730.674500 
	C169.775513,719.332275 195.039413,721.682068 203.710983,739.228271 
	C203.906921,739.624634 203.806412,740.167542 203.861664,740.861877 
	C198.431595,740.953125 193.683472,741.578735 188.906433,736.900635 
	C183.728897,731.830322 176.238571,731.028442 169.271606,734.353821 
	C161.258530,738.178467 156.582413,744.388794 155.927429,753.629456 
	C155.119827,765.023254 165.335022,778.583679 178.751907,777.017517 
	C187.455048,776.001526 193.169312,771.244629 196.974640,763.000000 
	C192.093475,763.000000 187.672394,763.000000 183.251312,763.000000 
	C178.959274,763.000000 174.667236,763.000000 170.193405,763.000000 
	C170.193405,760.206787 170.193405,757.803772 170.193405,755.200134 
	C182.791809,755.200134 195.208359,755.200134 207.608597,755.200134 
	C208.693512,765.246094 202.458389,780.365967 185.104141,785.641602 
	C178.645599,786.000000 172.291214,786.000000 165.468414,786.000000 
z"/>
<path fill="#000000" opacity="1.000000" stroke="none" 
	d="
M92.467621,786.000000 
	C89.160934,783.994690 86.329018,781.979187 83.481560,779.985901 
	C66.622963,768.183960 66.934181,743.045776 82.258308,730.232239 
	C92.063148,722.033813 111.283554,721.624756 121.287346,729.574890 
	C128.916748,735.638184 133.021088,743.454163 133.821030,752.584656 
	C135.110123,767.298157 125.119644,782.215820 109.117477,785.630249 
	C103.645073,786.000000 98.290138,786.000000 92.467621,786.000000 
M94.949158,775.981995 
	C99.301865,776.157349 103.848244,777.229065 107.970642,776.338379 
	C119.915054,773.757690 126.998405,759.377991 122.751198,747.557190 
	C117.132942,731.920593 101.190300,728.878113 91.083572,735.774414 
	C75.431755,746.454529 78.013130,767.986633 94.949158,775.981995 
z"/>
<path fill="#000000" opacity="1.000000" stroke="none" 
	d="
M469.467590,786.000000 
	C467.976410,784.998108 467.122467,783.657410 465.902985,783.046570 
	C453.727905,776.948303 447.758942,766.769897 448.154083,753.558777 
	C448.634155,737.506775 461.419769,723.729370 477.836945,723.944580 
	C496.238525,724.185852 505.658630,730.937622 510.261078,748.801147 
	C514.369568,764.747498 503.393982,782.686707 486.122009,785.626343 
	C480.645081,786.000000 475.290131,786.000000 469.467590,786.000000 
M500.998901,750.944763 
	C498.289001,738.669434 489.503632,733.211365 479.668884,732.339966 
	C471.642181,731.628723 463.182251,737.984863 459.514832,747.009094 
	C455.881714,755.948730 458.339081,764.073486 464.474487,770.764832 
	C470.161255,776.966858 477.646729,778.677612 485.857300,776.052002 
	C496.321899,772.705566 501.000061,765.215576 500.998901,750.944763 
z"/>
<path fill="#000000" opacity="1.000000" stroke="none" 
	d="
M548.466125,786.000000 
	C540.085266,783.035339 532.884216,779.212341 528.139771,771.701233 
	C521.478638,761.155579 522.736450,743.537781 531.368652,733.594788 
	C541.274109,722.185181 563.113464,721.591858 572.893616,728.902893 
	C583.591980,736.900330 587.667725,747.648010 585.794678,760.194275 
	C584.076416,771.703308 577.625793,780.377686 565.842163,784.040955 
	C564.924194,784.326355 564.084412,784.863220 563.104126,785.641602 
	C558.310730,786.000000 553.621521,786.000000 548.466125,786.000000 
M573.628174,765.897949 
	C575.725830,760.854919 577.539612,755.897949 576.061829,750.161194 
	C572.452820,736.151245 558.891968,728.280579 545.400635,735.021118 
	C535.754272,739.840515 531.699097,749.467163 534.000244,760.106262 
	C535.741455,768.156555 543.127197,775.819824 551.145386,776.887451 
	C559.283020,777.971008 567.243164,776.005615 573.628174,765.897949 
z"/>
<path fill="#000000" opacity="1.000000" stroke="none" 
	d="
M337.467957,786.000000 
	C334.266846,783.780884 331.696655,781.313416 328.768127,779.392151 
	C321.759949,774.794312 318.312653,767.802490 317.172241,760.126221 
	C315.157806,746.566772 319.732269,735.305542 331.722595,727.838074 
	C344.580200,719.830627 368.913696,722.978943 375.591614,740.968628 
	C369.958557,740.753174 364.819489,741.771790 359.765045,736.769897 
	C354.295044,731.356628 346.213562,730.908203 339.180908,734.498535 
	C332.365997,737.977783 328.156433,743.786133 326.911530,751.799805 
	C324.787872,765.470703 336.861938,778.665833 349.725372,776.900146 
	C352.805267,776.477417 356.000153,775.269348 358.647400,773.625671 
	C366.222595,768.922241 366.122650,768.761292 374.471252,769.175171 
	C375.082245,774.443420 364.990784,783.466675 355.114197,785.633057 
	C349.311951,786.000000 343.623932,786.000000 337.467957,786.000000 
z"/>
<path fill="#000000" opacity="1.000000" stroke="none" 
	d="
M825.466858,786.000000 
	C824.502441,785.040222 824.257080,783.651428 823.467957,783.187622 
	C816.333740,778.994141 814.021790,772.415100 814.006836,764.655029 
	C813.981812,751.667114 814.000000,738.679016 814.000000,725.345642 
	C817.170227,725.345642 820.245239,725.345642 824.000000,725.345642 
	C824.000000,727.661621 824.000000,730.252686 824.000000,732.843811 
	C824.000000,743.673584 823.963867,754.503540 824.013245,765.333069 
	C824.044067,772.102539 828.476868,776.845154 834.447083,777.039978 
	C840.031433,777.222168 845.308228,772.565613 845.108032,765.314026 
	C844.744934,752.162720 845.035339,738.993286 845.066223,725.831421 
	C845.066528,725.702148 845.247803,725.573303 845.511169,725.222107 
	C848.410950,725.222107 851.481812,725.222107 854.005310,725.222107 
	C854.005310,741.017212 854.425476,756.706543 853.817871,772.355957 
	C853.538025,779.563477 847.967407,783.445740 841.104492,785.641724 
	C835.977905,786.000000 830.955811,786.000000 825.466858,786.000000 
z"/>
<path fill="#000000" opacity="1.000000" stroke="none" 
	d="
M277.466858,786.000000 
	C274.728363,783.228271 271.973907,780.714905 270.315002,777.615234 
	C268.501129,774.225891 267.700256,770.294434 266.313812,766.170776 
	C270.277496,766.170776 273.246735,766.170776 275.664795,766.170776 
	C277.444763,769.333801 278.599365,772.809814 280.906189,775.150330 
	C284.356262,778.650940 290.485657,777.513245 293.042755,773.578796 
	C296.718018,767.923645 295.989380,763.833984 290.533173,760.989746 
	C286.126617,758.692688 281.508423,756.804260 277.077515,754.550903 
	C269.435211,750.664246 268.015198,743.553101 269.227936,736.688538 
	C270.529999,729.318542 277.342865,724.200806 284.413513,723.945618 
	C290.196411,723.736877 295.849945,723.987427 299.474060,729.126709 
	C301.787811,732.407776 303.180542,736.338318 305.367462,740.746033 
	C300.806122,740.746033 297.700592,740.746033 294.441895,740.746033 
	C293.019714,736.939392 291.938904,732.818970 286.267303,732.901917 
	C282.409576,732.958313 280.298767,735.306396 279.183594,738.036194 
	C277.876953,741.234436 279.563599,744.253357 282.664429,745.888062 
	C285.629913,747.451599 288.709015,748.915405 291.896606,749.920654 
	C302.038116,753.118958 304.409851,758.914185 304.948212,765.942505 
	C305.651947,775.129150 301.676422,781.502441 293.090607,785.654785 
	C287.977905,786.000000 282.955811,786.000000 277.466858,786.000000 
z"/>
<path fill="#000000" opacity="1.000000" stroke="none" 
	d="
M883.460632,786.000000 
	C873.749634,782.720947 869.528442,775.905457 869.415894,766.179993 
	C872.309998,766.179993 875.431702,766.179993 878.541626,766.179993 
	C879.975891,773.875488 882.970215,776.888672 888.656555,777.051208 
	C893.485474,777.189270 895.815002,774.234436 896.890015,770.379089 
	C898.160950,765.821533 895.722717,761.685974 891.695679,759.997559 
	C887.867188,758.392395 884.155151,756.482544 880.261047,755.066467 
	C871.646912,751.933960 870.040405,742.719666 871.270813,736.562317 
	C872.830322,728.758179 879.491089,724.608643 887.499512,723.849854 
	C898.040771,722.851074 906.030457,730.636963 905.893982,740.771362 
	C902.789001,740.771362 899.677063,740.771362 896.260437,740.771362 
	C895.899719,737.019897 894.582642,733.331116 890.212463,733.165588 
	C887.790222,733.073792 884.810486,734.211853 882.943054,735.804810 
	C879.216064,738.984009 880.251526,743.438110 885.129761,745.951294 
	C888.661682,747.770874 892.471680,749.045837 896.136108,750.614075 
	C904.399475,754.150330 907.648682,760.556458 907.028076,769.338806 
	C906.469116,777.248779 902.470032,782.454163 895.094421,785.650879 
	C891.307068,786.000000 887.614197,786.000000 883.460632,786.000000 
z"/>
<path fill="#000000" opacity="1.000000" stroke="none" 
	d="
M929.464661,786.000000 
	C927.456787,784.289734 925.975159,782.518677 924.358704,780.880554 
	C919.604919,776.062744 918.718201,773.635620 919.309204,766.000671 
	C921.381592,766.000671 923.594177,765.623535 925.578552,766.134033 
	C926.888489,766.470947 928.578674,767.915894 928.872559,769.155396 
	C929.970764,773.787842 932.924561,776.894409 937.083435,776.999939 
	C942.423340,777.135559 945.547974,774.747742 946.610046,768.681702 
	C947.318848,764.633301 944.879028,761.755249 941.243530,760.029724 
	C936.349182,757.706482 931.256836,755.737549 926.570312,753.055786 
	C921.180359,749.971558 919.062134,741.955811 921.110107,734.654663 
	C922.707703,728.959229 929.004700,724.197266 934.810120,723.966797 
	C942.059143,723.679077 949.040466,724.065857 952.863037,731.505798 
	C954.255310,734.215820 954.734680,737.394836 955.767090,740.811890 
	C951.714233,740.811890 948.756958,740.811890 945.362183,740.811890 
	C944.884033,736.593506 943.477905,733.102783 937.973083,732.892334 
	C933.346558,732.715454 931.133057,735.457764 930.196045,738.907654 
	C929.328491,742.101990 931.246094,744.777283 934.570435,746.155884 
	C938.846191,747.928955 943.149597,749.679382 947.267517,751.779785 
	C954.937378,755.691833 957.723877,761.944275 955.899170,772.379028 
	C954.689758,779.294983 950.343323,783.833740 943.105835,785.640503 
	C938.643127,786.000000 934.286194,786.000000 929.464661,786.000000 
z"/>
<path fill="#000000" opacity="1.000000" stroke="none" 
	d="
M648.000000,608.000000 
	C647.666626,597.254578 647.683167,586.982483 646.902222,576.771240 
	C646.107849,566.384277 639.866943,557.836792 627.273193,558.020386 
	C623.826050,558.070618 620.245850,557.824951 616.962219,558.651062 
	C605.879761,561.439270 602.460327,568.613708 602.170044,581.298828 
	C601.594543,606.442261 602.000000,631.608093 602.000000,656.764709 
	C602.000000,658.384521 602.000000,660.004333 602.000000,661.796509 
	C587.521851,661.796509 573.454102,661.796509 559.000000,661.796509 
	C559.000000,659.976868 559.000000,658.354187 559.000000,656.731445 
	C559.000000,629.908813 558.934753,603.085999 559.026062,576.263672 
	C559.075562,561.719116 561.949402,548.223816 571.672424,536.461304 
	C578.594299,528.087585 587.553284,523.681213 597.339478,521.221313 
	C609.347656,518.202881 621.653748,517.647522 634.242981,518.655457 
	C645.038635,519.519714 654.867859,522.056946 664.260864,527.039795 
	C665.828430,527.871399 667.287231,528.908203 668.977966,529.963562 
	C679.370300,523.585327 690.440735,519.509094 703.223389,518.687561 
	C718.092468,517.732056 732.486816,518.301575 746.579285,523.039368 
	C765.335876,529.345215 777.538147,546.932007 777.851746,565.564331 
	C778.388550,597.457764 778.000000,629.366760 778.000000,661.635986 
	C764.874756,661.635986 750.803467,661.635986 736.000000,661.635986 
	C736.000000,660.205261 736.000000,658.462097 736.000000,656.718994 
	C736.000000,631.729004 736.136536,606.737549 735.871338,581.750366 
	C735.824829,577.367371 734.462158,572.879517 733.058167,568.655884 
	C730.576355,561.189941 724.363647,558.607056 717.173950,558.064392 
	C713.551208,557.791016 709.812073,557.785645 706.239807,558.364319 
	C696.761902,559.899658 692.725098,566.783081 691.104858,575.320618 
	C690.254272,579.802734 690.064331,584.461060 690.045776,589.041687 
	C689.948059,613.174316 690.000000,637.307434 690.000000,661.719849 
	C676.035889,661.719849 662.300476,661.719849 648.000000,661.719849 
	C648.000000,644.017151 648.000000,626.258545 648.000000,608.000000 
z"/>
<path fill="#000000" opacity="1.000000" stroke="none" 
	d="
M407.000000,588.000000 
	C407.000000,612.804077 407.000000,637.108154 407.000000,661.705811 
	C392.731079,661.705811 378.662048,661.705811 364.236633,661.705811 
	C364.236633,657.730469 364.236633,653.651184 364.236633,648.986450 
	C361.116089,651.838623 358.636536,654.463867 355.804077,656.627014 
	C346.994232,663.355164 336.857300,665.739563 325.881042,666.089661 
	C309.956329,666.597534 295.336365,663.166931 282.278992,653.787231 
	C268.769165,644.082642 260.108612,631.117737 255.975388,615.051941 
	C249.529724,589.997803 252.352661,566.211060 267.667450,545.100037 
	C278.527710,530.129456 293.791718,521.593140 312.452423,518.846436 
	C325.798859,516.882080 338.459137,518.126404 350.312103,524.250854 
	C355.347412,526.852600 359.465454,531.229553 363.812073,534.651550 
	C363.812073,531.573120 363.812073,527.557800 363.812073,523.276489 
	C378.294128,523.276489 392.365723,523.276489 407.000000,523.276489 
	C407.000000,544.651794 407.000000,566.075867 407.000000,588.000000 
M312.061310,562.420288 
	C308.713837,565.545044 304.687439,568.199158 302.138306,571.877197 
	C291.965912,586.554199 293.345032,607.454468 309.702332,620.110779 
	C316.324341,625.234436 324.220764,627.585144 332.407959,626.823486 
	C341.252838,626.000549 348.931335,622.282104 355.279907,615.416748 
	C365.136414,604.757751 366.931122,585.765137 359.100098,573.501099 
	C350.110382,559.422424 330.128815,552.649231 312.061310,562.420288 
z"/>
<path fill="#000000" opacity="1.000000" stroke="none" 
	d="
M845.000000,593.994324 
	C845.332458,599.891479 845.323547,605.338013 846.074829,610.677490 
	C847.299194,619.379456 852.287292,624.638062 861.095093,626.730835 
	C872.617859,629.468811 885.109436,624.763794 888.284058,614.993591 
	C890.107361,609.382141 890.809998,603.201477 890.883789,597.262878 
	C891.169495,574.273987 891.000000,551.279297 891.000000,528.286804 
	C891.000000,526.662415 891.000000,525.037964 891.000000,523.209778 
	C905.108826,523.209778 918.844055,523.209778 933.000000,523.209778 
	C933.000000,525.150513 933.000000,526.935852 933.000000,528.721130 
	C933.000000,557.045227 933.113586,585.369995 932.959900,613.693237 
	C932.858093,632.449585 925.726196,647.688904 909.491638,657.978516 
	C901.855530,662.818420 893.265747,664.910828 884.452820,665.921936 
	C878.081909,666.652954 871.599121,667.224304 865.218445,666.884705 
	C851.647522,666.162476 837.999817,665.303040 825.866150,657.992004 
	C814.176270,650.948364 806.724182,640.557617 804.213379,627.394226 
	C802.443481,618.115723 802.193726,608.462036 802.091614,598.967041 
	C801.821350,573.834961 802.000000,548.698120 802.000000,523.281982 
	C816.294556,523.281982 830.363953,523.281982 845.000000,523.281982 
	C845.000000,546.647949 845.000000,570.071777 845.000000,593.994324 
z"/>
<path fill="#E30613" opacity="1.000000" stroke="none" 
	d="
M624.213989,383.279480 
	C637.431091,373.269379 648.608032,361.621216 657.149963,347.988922 
	C663.794067,337.385468 668.402039,325.513824 674.096924,314.298248 
	C674.802856,312.907898 676.623840,311.142761 677.934753,311.137238 
	C717.743042,310.969208 757.552185,311.000305 798.579895,311.000305 
	C797.148438,317.976501 796.024109,324.580719 794.420593,331.066406 
	C788.925903,353.290833 780.435242,374.365601 769.834106,394.637756 
	C767.510742,399.080688 764.883911,401.192596 759.331238,401.163452 
	C707.008667,400.888458 654.684021,401.000000 602.359985,401.000000 
	C600.624878,401.000000 598.889709,401.000000 596.078552,401.000000 
	C606.112122,394.716400 615.035461,389.128082 624.213989,383.279480 
z"/>
<path fill="#000000" opacity="1.000000" stroke="none" 
	d="
M541.307983,624.313049 
	C540.196045,635.890381 535.310486,644.871460 526.644958,652.076416 
	C510.382263,665.597961 491.610992,667.803955 471.556000,665.029541 
	C455.425751,662.798035 442.234863,655.663757 434.078522,641.312439 
	C430.509125,635.032043 428.675598,627.765076 425.794586,620.271851 
	C441.196625,620.271851 455.282806,620.271851 469.410614,620.271851 
	C473.301971,631.392151 482.590179,635.242126 493.104797,629.994812 
	C500.605621,626.251465 501.345062,617.189209 493.931366,613.154175 
	C487.100250,609.436279 479.665070,606.747742 472.331940,604.052002 
	C461.470795,600.059265 450.551361,596.488953 441.218658,589.113586 
	C430.806091,580.884827 427.692017,568.309631 429.388489,557.025818 
	C432.796356,534.359497 454.650726,521.339844 473.346283,518.852844 
	C489.791809,516.665100 505.183075,518.591675 518.877441,528.097473 
	C530.294495,536.022461 536.486267,547.306946 537.199402,562.000000 
	C529.915344,562.000000 522.968750,562.000000 516.022095,562.000000 
	C509.202606,562.000000 502.383118,562.000000 495.590759,562.000000 
	C494.068054,550.227783 480.671753,550.362610 474.815979,554.739563 
	C470.629639,557.868774 470.842773,565.245544 475.560303,567.754639 
	C481.022278,570.659668 486.919983,572.797363 492.743103,574.959717 
	C502.336121,578.521973 512.468079,580.936768 521.567322,585.456787 
	C536.912781,593.079590 543.305908,606.406738 541.307983,624.313049 
z"/>
<path fill="#000000" opacity="1.000000" stroke="none" 
	d="
M241.824249,557.997803 
	C237.118118,558.331421 232.766296,558.133972 228.688843,559.097595 
	C217.992355,561.625427 216.777954,564.674622 214.135651,574.631042 
	C213.022202,578.826538 213.064133,583.399475 213.045456,587.802856 
	C212.948013,610.776001 213.000000,633.749756 213.000000,656.723328 
	C213.000000,658.345825 213.000000,659.968384 213.000000,661.792358 
	C198.562012,661.792358 184.501755,661.792358 170.000000,661.792358 
	C170.000000,660.040955 170.000000,658.426453 170.000000,656.812012 
	C170.000000,630.508972 169.640625,604.198608 170.178345,577.906555 
	C170.390961,567.509766 170.869980,556.940552 175.892288,547.138977 
	C183.742493,531.818420 196.290451,522.997742 212.804489,520.171936 
	C222.899979,518.444519 233.281448,518.388367 243.996582,517.545288 
	C243.996582,530.978699 244.020050,543.584229 243.924683,556.188904 
	C243.920090,556.795288 242.867920,557.393799 241.824249,557.997803 
z"/>
<path fill="#000000" opacity="1.000000" stroke="none" 
	d="
M740.346680,757.813782 
	C747.118347,770.114075 741.267212,784.310059 725.627441,784.954468 
	C718.993591,785.227722 712.339050,785.000000 705.347046,785.000000 
	C705.347046,765.081177 705.347046,745.257812 705.347046,725.002991 
	C712.286743,725.002991 719.250366,724.609253 726.147400,725.118103 
	C732.538513,725.589661 736.631653,729.778687 738.839355,735.637146 
	C741.237976,742.002319 740.067810,747.708313 735.388672,752.229614 
	C736.959839,754.014099 738.513184,755.778442 740.346680,757.813782 
M718.481384,758.000000 
	C717.057617,758.072510 715.633850,758.145020 714.000000,758.228210 
	C714.000000,761.350586 714.000000,764.142029 714.000000,766.933472 
	C714.000000,769.861206 714.000000,772.788940 714.000000,775.999390 
	C717.921021,775.999390 721.407410,776.343872 724.793701,775.909058 
	C728.708191,775.406433 732.099243,773.879272 733.067810,769.235596 
	C733.933411,765.085449 732.379517,761.710449 729.148132,759.987732 
	C726.347839,758.494751 722.694946,758.600769 718.481384,758.000000 
M718.487183,749.000000 
	C719.648438,749.000000 720.809753,749.007690 721.970947,748.998657 
	C726.489624,748.963562 729.854736,745.920410 729.999329,741.744507 
	C730.144043,737.566101 726.863220,734.194946 722.338684,734.019775 
	C719.601807,733.913818 716.857483,734.000244 714.000183,734.000244 
	C714.000183,738.465149 714.249329,742.290833 713.924133,746.067017 
	C713.646179,749.294373 715.482666,749.098999 718.487183,749.000000 
z"/>
<path fill="#000000" opacity="1.000000" stroke="none" 
	d="
M787.108032,784.569824 
	C781.208374,776.392395 775.588928,768.520264 769.955627,760.658081 
	C769.603088,760.165955 769.142395,759.751343 768.177490,758.691528 
	C768.177490,767.757996 768.177490,776.095581 768.177490,784.713135 
	C765.055603,784.713135 762.318115,784.713135 759.285522,784.713135 
	C759.285522,765.082092 759.285522,745.355469 759.285522,724.623291 
	C768.323364,725.047302 777.519165,724.964539 786.573669,726.055115 
	C794.845886,727.051453 799.862549,735.306030 799.068298,746.667725 
	C798.510193,754.651306 794.427246,759.737610 785.787415,762.091919 
	C784.909485,762.331177 784.132874,762.942383 783.307983,763.379883 
	C788.505615,770.345398 793.704468,777.312073 799.349976,784.877319 
	C794.825439,784.877319 791.105225,784.877319 787.108032,784.569824 
M789.359253,743.894104 
	C788.510742,734.136169 780.157593,732.630859 768.344910,734.654114 
	C768.344910,741.445190 768.344910,748.191895 768.344910,754.897217 
	C780.876221,755.698792 787.095581,754.342285 789.359253,743.894104 
z"/>
<path fill="#000000" opacity="1.000000" stroke="none" 
	d="
M390.000000,746.000122 
	C390.000000,738.857483 390.000000,732.214783 390.000000,725.287231 
	C393.278809,725.287231 396.353271,725.287231 399.827759,725.287231 
	C399.827759,733.271423 399.827759,741.352844 399.827759,749.713989 
	C407.617493,749.713989 415.022522,749.713989 422.830292,749.713989 
	C422.830292,741.715576 422.830292,733.637878 422.830292,725.283447 
	C426.286224,725.283447 429.360443,725.283447 432.720520,725.283447 
	C432.720520,744.948853 432.720520,764.686646 432.720520,784.712891 
	C429.721100,784.712891 426.646637,784.712891 423.172241,784.712891 
	C423.172241,776.394226 423.172241,767.980591 423.172241,759.286133 
	C415.382660,759.286133 407.977631,759.286133 400.169983,759.286133 
	C400.169983,767.617798 400.169983,776.028442 400.169983,784.716309 
	C396.714233,784.716309 393.640015,784.716309 390.000000,784.716309 
	C390.000000,772.029602 390.000000,759.264893 390.000000,746.000122 
z"/>
<path fill="#000000" opacity="1.000000" stroke="none" 
	d="
M12.000000,758.000000 
	C12.000000,746.858459 12.000000,736.216919 12.000000,725.288391 
	C15.276533,725.288391 18.351145,725.288391 21.826147,725.288391 
	C21.826147,733.269531 21.826147,741.351257 21.826147,749.713318 
	C29.949917,749.713318 37.688278,749.713318 45.830887,749.713318 
	C45.830887,741.716614 45.830887,733.638855 45.830887,725.284058 
	C48.954014,725.284058 51.691444,725.284058 54.719769,725.284058 
	C54.719769,744.942627 54.719769,764.681824 54.719769,784.711121 
	C52.055412,784.711121 49.317856,784.711121 46.176773,784.711121 
	C46.176773,776.403198 46.176773,767.987732 46.176773,759.288940 
	C38.054764,759.288940 30.316513,759.288940 22.174652,759.288940 
	C22.174652,767.612610 22.174652,776.023682 22.174652,784.713989 
	C18.718632,784.713989 15.644173,784.713989 12.000000,784.713989 
	C12.000000,776.034424 12.000000,767.267212 12.000000,758.000000 
z"/>
<path fill="#000000" opacity="1.000000" stroke="none" 
	d="
M248.908173,785.000000 
	C239.785233,785.000000 231.150345,785.000000 222.259140,785.000000 
	C222.259140,764.992432 222.259140,745.257935 222.259140,725.261169 
	C233.004669,725.261169 243.741959,725.261169 254.740692,725.261169 
	C254.740692,728.002625 254.740692,730.739380 254.740692,733.879517 
	C247.340332,733.879517 239.926041,733.879517 232.259598,733.879517 
	C232.259598,739.338501 232.259598,744.410339 232.259598,749.886414 
	C239.674500,749.886414 247.087891,749.886414 254.745956,749.886414 
	C254.745956,753.012695 254.745956,755.749512 254.745956,758.889282 
	C247.332245,758.889282 239.916718,758.889282 232.254669,758.889282 
	C232.254669,764.682617 232.254669,770.087402 232.254669,775.895874 
	C239.685455,775.895874 247.098495,775.895874 254.751144,775.895874 
	C254.751144,779.023438 254.751144,781.760620 254.751144,785.000000 
	C252.952469,785.000000 251.174332,785.000000 248.908173,785.000000 
z"/>
<path fill="#000000" opacity="1.000000" stroke="none" 
	d="
M989.997131,785.000000 
	C983.855469,785.000000 978.213013,785.000000 972.286133,785.000000 
	C972.286133,765.048462 972.286133,745.314636 972.286133,725.289795 
	C982.944092,725.289795 993.680664,725.289795 1004.709778,725.289795 
	C1004.709778,727.943237 1004.709778,730.682068 1004.709778,733.820801 
	C997.073730,733.820801 989.323853,733.820801 981.290161,733.820801 
	C981.290161,739.277222 981.290161,744.348633 981.290161,749.825562 
	C988.943054,749.825562 996.687805,749.825562 1004.712891,749.825562 
	C1004.712891,752.945801 1004.712891,755.684937 1004.712891,758.826416 
	C997.067566,758.826416 989.317749,758.826416 981.287292,758.826416 
	C981.287292,764.616638 981.287292,770.021118 981.287292,775.830811 
	C988.949707,775.830811 996.693909,775.830811 1004.715759,775.830811 
	C1004.715759,778.954651 1004.715759,781.693237 1004.715759,785.000000 
	C1000.036743,785.000000 995.266541,785.000000 989.997131,785.000000 
z"/>
<path fill="#000000" opacity="1.000000" stroke="none" 
	d="
M615.163208,775.999878 
	C620.948792,776.000000 626.247620,776.000000 631.769897,776.000000 
	C631.769897,779.060547 631.769897,781.797363 631.769897,784.769287 
	C621.944885,784.769287 612.203613,784.769287 602.230469,784.769287 
	C602.230469,764.930542 602.230469,745.192627 602.230469,725.227051 
	C605.401367,725.227051 608.472595,725.227051 612.000000,725.227051 
	C612.000000,740.938110 611.990784,756.551758 612.012451,772.165344 
	C612.014954,774.000854 611.223267,776.509216 615.163208,775.999878 
z"/>
<path fill="#000000" opacity="1.000000" stroke="none" 
	d="
M1045.911865,776.000000 
	C1048.051270,776.000000 1049.703247,776.000000 1051.677246,776.000000 
	C1051.677246,778.883972 1051.677246,781.624268 1051.677246,784.685669 
	C1042.131958,784.685669 1032.385376,784.685669 1022.318237,784.685669 
	C1022.318237,765.111084 1022.318237,745.374268 1022.318237,725.317993 
	C1024.890991,725.317993 1027.631592,725.317993 1030.771362,725.317993 
	C1030.771362,741.878052 1030.771362,758.625244 1030.771362,776.000000 
	C1035.908325,776.000000 1040.666382,776.000000 1045.911865,776.000000 
z"/>
<path fill="#FFFFFF" opacity="1.000000" stroke="none" 
	d="
M97.236839,562.733582 
	C100.262138,566.983826 103.032074,570.971985 106.417038,575.845703 
	C84.659264,575.845703 64.568817,575.845703 43.760715,575.845703 
	C46.418697,566.426331 52.256313,560.217773 60.832787,556.727356 
	C73.924850,551.399048 86.112099,553.130798 97.236839,562.733582 
z"/>
<path fill="#FFFFFF" opacity="1.000000" stroke="none" 
	d="
M94.564117,775.844788 
	C78.013130,767.986633 75.431755,746.454529 91.083572,735.774414 
	C101.190300,728.878113 117.132942,731.920593 122.751198,747.557190 
	C126.998405,759.377991 119.915054,773.757690 107.970642,776.338379 
	C103.848244,777.229065 99.301865,776.157349 94.564117,775.844788 
z"/>
<path fill="#FFFFFF" opacity="1.000000" stroke="none" 
	d="
M500.999451,751.391602 
	C501.000061,765.215576 496.321899,772.705566 485.857300,776.052002 
	C477.646729,778.677612 470.161255,776.966858 464.474487,770.764832 
	C458.339081,764.073486 455.881714,755.948730 459.514832,747.009094 
	C463.182251,737.984863 471.642181,731.628723 479.668884,732.339966 
	C489.503632,733.211365 498.289001,738.669434 500.999451,751.391602 
z"/>
<path fill="#FFFFFF" opacity="1.000000" stroke="none" 
	d="
M573.353271,766.166382 
	C567.243164,776.005615 559.283020,777.971008 551.145386,776.887451 
	C543.127197,775.819824 535.741455,768.156555 534.000244,760.106262 
	C531.699097,749.467163 535.754272,739.840515 545.400635,735.021118 
	C558.891968,728.280579 572.452820,736.151245 576.061829,750.161194 
	C577.539612,755.897949 575.725830,760.854919 573.353271,766.166382 
z"/>
<path fill="#FFFFFF" opacity="1.000000" stroke="none" 
	d="
M312.388702,562.222656 
	C330.128815,552.649231 350.110382,559.422424 359.100098,573.501099 
	C366.931122,585.765137 365.136414,604.757751 355.279907,615.416748 
	C348.931335,622.282104 341.252838,626.000549 332.407959,626.823486 
	C324.220764,627.585144 316.324341,625.234436 309.702332,620.110779 
	C293.345032,607.454468 291.965912,586.554199 302.138306,571.877197 
	C304.687439,568.199158 308.713837,565.545044 312.388702,562.222656 
z"/>
<path fill="#FFFFFF" opacity="1.000000" stroke="none" 
	d="
M718.950195,758.000000 
	C722.694946,758.600769 726.347839,758.494751 729.148132,759.987732 
	C732.379517,761.710449 733.933411,765.085449 733.067810,769.235596 
	C732.099243,773.879272 728.708191,775.406433 724.793701,775.909058 
	C721.407410,776.343872 717.921021,775.999390 714.000000,775.999390 
	C714.000000,772.788940 714.000000,769.861206 714.000000,766.933472 
	C714.000000,764.142029 714.000000,761.350586 714.000000,758.228210 
	C715.633850,758.145020 717.057617,758.072510 718.950195,758.000000 
z"/>
<path fill="#FFFFFF" opacity="1.000000" stroke="none" 
	d="
M718.019531,749.000000 
	C715.482666,749.098999 713.646179,749.294373 713.924133,746.067017 
	C714.249329,742.290833 714.000183,738.465149 714.000183,734.000244 
	C716.857483,734.000244 719.601807,733.913818 722.338684,734.019775 
	C726.863220,734.194946 730.144043,737.566101 729.999329,741.744507 
	C729.854736,745.920410 726.489624,748.963562 721.970947,748.998657 
	C720.809753,749.007690 719.648438,749.000000 718.019531,749.000000 
z"/>
<path fill="#FFFFFF" opacity="1.000000" stroke="none" 
	d="
M789.627563,744.180054 
	C787.095581,754.342285 780.876221,755.698792 768.344910,754.897217 
	C768.344910,748.191895 768.344910,741.445190 768.344910,734.654114 
	C780.157593,732.630859 788.510742,734.136169 789.627563,744.180054 
z"/>
</svg>