<?xml version="1.0" encoding="UTF-8" standalone="no"?>
<!-- Generator: Adobe Illustrator 23.0.2, SVG Export Plug-In . SVG Version: 6.00 Build 0)  -->

<svg
   xmlns:dc="http://purl.org/dc/elements/1.1/"
   xmlns:cc="http://creativecommons.org/ns#"
   xmlns:rdf="http://www.w3.org/1999/02/22-rdf-syntax-ns#"
   xmlns:svg="http://www.w3.org/2000/svg"
   xmlns="http://www.w3.org/2000/svg"
   xmlns:sodipodi="http://sodipodi.sourceforge.net/DTD/sodipodi-0.dtd"
   xmlns:inkscape="http://www.inkscape.org/namespaces/inkscape"
   version="1.1"
   id="Layer_1"
   x="0px"
   y="0px"
   viewBox="0 0 299.99999 300.00001"
   xml:space="preserve"
   sodipodi:docname="EhB-logo-transparant.svg"
   width="300"
   height="300"
   inkscape:version="0.92.4 (5da689c313, 2019-01-14)"><metadata
   id="metadata3813"><rdf:RDF><cc:Work
       rdf:about=""><dc:format>image/svg+xml</dc:format><dc:type
         rdf:resource="http://purl.org/dc/dcmitype/StillImage" /><dc:title></dc:title></cc:Work></rdf:RDF></metadata><defs
   id="defs3811" /><sodipodi:namedview
   pagecolor="#ffffff"
   bordercolor="#666666"
   borderopacity="1"
   objecttolerance="10"
   gridtolerance="10"
   guidetolerance="10"
   inkscape:pageopacity="0"
   inkscape:pageshadow="2"
   inkscape:window-width="2560"
   inkscape:window-height="1017"
   id="namedview3809"
   showgrid="false"
   inkscape:zoom="2.1203725"
   inkscape:cx="133.44749"
   inkscape:cy="144.73769"
   inkscape:window-x="-8"
   inkscape:window-y="-8"
   inkscape:window-maximized="1"
   inkscape:current-layer="Layer_1" />
<style
   type="text/css"
   id="style3764">
	.st0{fill:#E30613;}
	.st1{fill:#FFFFFF;}
</style>

<g
   id="g3806"
   transform="translate(-62.595,16.54001)">
	<path
   class="st0"
   d="m 238.25,133.87 c -3.04,3.04 -6.48,5.41 -10.16,7.12 h 40.44 c 3.89,-6.66 6.46,-13.87 7.75,-21.26 H 246.9 c -1.67,5.17 -4.54,10.04 -8.65,14.14 m 25.26,-55.52 1.45,-1.45 c -2.55,-3.94 -5.3,-7.95 -8.77,-11.42 C 231.09,40.39 193.06,37.72 167.56,63.21 146.46,84.3 143.1,116.4 157.47,141 h 40.45 c -3.68,-1.71 -7.13,-4.09 -10.16,-7.12 -13.95,-13.94 -13.95,-36.54 0,-50.48 10.87,-10.87 24.68,-12.21 36.61,-6.31 l -27.65,27.64 20.2,20.19 27.02,-27 z"
   id="path3768"
   inkscape:connector-curvature="0"
   style="fill:#e30613" />
	<path
   class="st1"
   d="M 110.23,183.35 H 95.04 c 0.79,-3.58 3.98,-5.66 7.6,-5.66 3.61,0 6.81,2.08 7.59,5.66 m 9.77,6.68 c 0.18,-0.89 0.24,-1.73 0.24,-2.62 0,-9.96 -7.41,-18.06 -17.66,-18.06 -9.82,0 -17.54,8.17 -17.54,17.77 0,9.66 7.96,17.53 17.72,17.53 7.33,0 13.12,-4.58 16.09,-10.93 H 108.4 c -1.51,1.69 -3.17,2.58 -5.64,2.58 -3.92,0 -7.23,-2.32 -7.83,-6.26 H 120 Z m 21.18,-11.3 h 2.02 v -9.32 c -1.3,0 -4.38,0.08 -4.38,0.08 -3.61,0.14 -7.63,1.36 -9.99,4.23 -2.71,3.34 -3.01,6.08 -3.01,10.2 v 19.79 h 10.01 v -18.3 c -0.01,-3.75 0.83,-6.68 5.35,-6.68 m 31.13,8.26 c 0,4.77 -3.5,8.47 -8.38,8.47 -4.7,0 -8.32,-3.76 -8.32,-8.35 0,-4.71 3.38,-8.53 8.26,-8.53 4.88,0 8.44,3.58 8.44,8.41 m 0,16.57 h 10 v -33.09 h -10 v 3.52 h -0.12 c -1.99,-3.28 -6.09,-4.65 -9.76,-4.65 -10.06,0 -16.81,7.99 -16.81,17.65 0,9.84 6.51,17.71 16.81,17.71 3.62,0 7.95,-1.31 9.76,-4.71 h 0.12 z m 25.55,-24.09 c 0,-1.49 1.51,-2.21 2.83,-2.21 1.75,0 3.07,0.66 3.13,2.5 h 9.82 c -0.66,-7.04 -6.15,-10.43 -12.84,-10.43 -6.45,0 -12.96,4 -12.96,10.91 0,4.65 3.98,7.21 7.96,8.64 1.45,0.54 2.89,1.01 4.34,1.49 1.81,0.72 4.52,1.43 4.52,3.82 0,1.73 -1.99,2.56 -3.49,2.56 -1.99,0 -3.5,-1.01 -3.8,-3.04 h -9.95 c 0.78,7.27 6.63,10.97 13.62,10.97 6.81,0 13.62,-3.81 13.62,-11.27 0.02,-11.67 -16.8,-8.75 -16.8,-13.94 m 63.7,24.25 h 10 v -19.79 c 0,-4.11 -0.3,-6.86 -3.01,-10.2 -2.37,-2.87 -6.37,-4.09 -9.99,-4.23 0,0 -1.26,-0.08 -2.6,-0.08 -1.29,0 -2.6,0.08 -2.6,0.08 -2.74,0.11 -5.71,1.19 -8.02,2.79 -2.3,-1.6 -5.27,-2.68 -8.02,-2.79 0,0 -1.26,-0.08 -2.6,-0.08 -1.3,0 -2.6,0.08 -2.6,0.08 -3.61,0.14 -7.62,1.36 -9.99,4.23 -2.71,3.34 -3.01,6.08 -3.01,10.2 v 19.79 h 10 v -18.3 c 0,-3.76 0.84,-6.76 5.36,-6.76 h 0.47 c 4.52,0 5.36,3 5.36,6.76 v 18.3 h 0.02 9.98 0.02 v -18.3 c 0,-3.76 0.84,-6.76 5.36,-6.76 h 0.47 c 4.52,0 5.36,3 5.36,6.76 v 18.3 z m 44.07,-3.26 c 2.71,-3.34 3.01,-6.08 3.01,-10.2 v -19.79 h -10 v 18.3 c 0,3.76 -0.84,6.75 -5.36,6.75 h -0.47 c -4.52,0 -5.36,-3 -5.36,-6.75 v -18.3 h -10 v 19.79 c 0,4.11 0.3,6.86 3.01,10.2 2.37,2.87 6.39,4.09 9.99,4.23 0,0 1.3,0.08 2.6,0.08 1.34,0 2.6,-0.08 2.6,-0.08 3.61,-0.14 7.61,-1.36 9.98,-4.23 m 23.68,-20.69 h 9.82 c -0.66,-7.04 -6.15,-10.43 -12.84,-10.43 -6.45,0 -12.96,4 -12.96,10.91 0,4.65 3.98,7.21 7.96,8.64 1.45,0.54 2.89,1.01 4.34,1.49 1.81,0.72 4.52,1.43 4.52,3.82 0,1.73 -1.99,2.56 -3.5,2.56 -1.99,0 -3.49,-1.01 -3.8,-3.04 h -9.94 c 0.78,7.27 6.63,10.97 13.62,10.97 6.81,0 13.62,-3.81 13.62,-11.27 0,-11.69 -16.81,-8.76 -16.81,-13.95 0,-1.49 1.51,-2.21 2.83,-2.21 1.75,0.01 3.08,0.67 3.14,2.51"
   id="path3770"
   inkscape:connector-curvature="0"
   style="fill:#ffffff" />
	<polygon
   class="st1"
   points="95.86,218.94 97.93,218.94 97.93,233.19 95.86,233.19 95.86,226.99 89.98,226.99 89.98,233.19 87.9,233.19 87.9,218.94 89.98,218.94 89.98,225.08 95.86,225.08 "
   id="polygon3772"
   style="fill:#ffffff" />
	<path
   class="st1"
   d="m 109.33,233.46 c -4.08,0 -7.41,-3.31 -7.41,-7.39 0,-4.12 3.31,-7.39 7.41,-7.39 4.16,0 7.41,3.29 7.41,7.43 0,4.06 -3.35,7.35 -7.41,7.35 m 0,-12.88 c -2.21,0 -3.97,1.2 -4.83,3.22 -0.31,0.71 -0.5,1.48 -0.5,2.27 0,0.79 0.19,1.58 0.5,2.31 0.89,2 2.64,3.18 4.83,3.18 2.35,0 4.16,-1.35 4.97,-3.52 0.23,-0.6 0.37,-1.25 0.37,-1.91 -0.01,-3.03 -2.24,-5.55 -5.34,-5.55"
   id="path3774"
   inkscape:connector-curvature="0"
   style="fill:#ffffff" />
	<path
   class="st1"
   d="m 130.35,232.77 c -0.96,0.44 -2.04,0.69 -3.1,0.69 -4.08,0 -7.3,-3.29 -7.3,-7.36 0,-4.08 3.16,-7.43 7.28,-7.43 2.68,0 5.12,1.5 6.39,3.85 h -2.43 c -1.06,-1.19 -2.25,-1.95 -3.89,-1.95 -3,0 -5.28,2.6 -5.28,5.53 0,2.89 2.35,5.45 5.3,5.45 2.27,0 4.1,-1.44 4.91,-3.54 h -6.64 v -1.91 h 9.01 c -0.03,2.93 -1.55,5.44 -4.25,6.67"
   id="path3776"
   inkscape:connector-curvature="0"
   style="fill:#ffffff" />
	<polygon
   class="st1"
   points="140.36,231.29 145.96,231.29 145.96,233.19 138.28,233.19 138.28,218.94 145.96,218.94 145.96,220.85 140.36,220.85 140.36,225.05 145.96,225.05 145.96,226.95 140.36,226.95 "
   id="polygon3778"
   style="fill:#ffffff" />
	<path
   class="st1"
   d="m 153.47,233.46 c -2.6,0 -4.39,-1.91 -4.39,-4.49 h 2.08 c 0,1.39 0.81,2.58 2.31,2.58 1.42,0 2.29,-1.02 2.29,-2.41 0,-1.52 -1.1,-1.87 -2.29,-2.33 -2.21,-0.85 -3.99,-1.5 -3.99,-4.28 0,-2.21 1.81,-3.87 3.99,-3.87 2.37,0 4.08,1.56 4.08,3.97 h -2.08 c 0,-1.23 -0.77,-2.06 -2,-2.06 -1.04,0 -1.91,0.91 -1.91,1.95 0,3.02 6.28,1.21 6.28,6.63 0,2.56 -1.83,4.31 -4.37,4.31"
   id="path3780"
   inkscape:connector-curvature="0"
   style="fill:#ffffff" />
	<path
   class="st1"
   d="m 172.32,222.58 c -1.06,-1.23 -2.33,-2 -4.01,-2 -3,0 -5.29,2.48 -5.29,5.45 0,2.89 2.29,5.53 5.26,5.53 1.5,0 2.93,-0.75 3.89,-1.89 h 2.56 c -1.35,2.37 -3.74,3.79 -6.47,3.79 -4.06,0 -7.32,-3.43 -7.32,-7.45 0,-4.08 3.27,-7.34 7.34,-7.34 1.52,0 3.12,0.5 4.35,1.39 1,0.71 1.6,1.46 2.19,2.52 z"
   id="path3782"
   inkscape:connector-curvature="0"
   style="fill:#ffffff" />
	<polygon
   class="st1"
   points="186.43,218.94 188.5,218.94 188.5,233.19 186.43,233.19 186.43,226.99 180.55,226.99 180.55,233.19 178.47,233.19 178.47,218.94 180.55,218.94 180.55,225.08 186.43,225.08 "
   id="polygon3784"
   style="fill:#ffffff" />
	<path
   class="st1"
   d="m 199.9,233.46 c -4.08,0 -7.41,-3.31 -7.41,-7.39 0,-4.12 3.31,-7.39 7.41,-7.39 4.16,0 7.41,3.29 7.41,7.43 0,4.06 -3.35,7.35 -7.41,7.35 m 0,-12.88 c -2.21,0 -3.97,1.2 -4.83,3.22 -0.31,0.71 -0.5,1.48 -0.5,2.27 0,0.79 0.19,1.58 0.5,2.31 0.89,2 2.64,3.18 4.83,3.18 2.35,0 4.16,-1.35 4.97,-3.52 0.23,-0.6 0.37,-1.25 0.37,-1.91 -0.01,-3.03 -2.24,-5.55 -5.34,-5.55"
   id="path3786"
   inkscape:connector-curvature="0"
   style="fill:#ffffff" />
	<path
   class="st1"
   d="m 217.96,233.46 c -4.08,0 -7.41,-3.31 -7.41,-7.39 0,-4.12 3.31,-7.39 7.41,-7.39 4.16,0 7.41,3.29 7.41,7.43 0,4.06 -3.35,7.35 -7.41,7.35 m 0,-12.88 c -2.21,0 -3.97,1.2 -4.83,3.22 -0.31,0.71 -0.5,1.48 -0.5,2.27 0,0.79 0.19,1.58 0.5,2.31 0.88,2 2.64,3.18 4.83,3.18 2.35,0 4.16,-1.35 4.97,-3.52 0.23,-0.6 0.37,-1.25 0.37,-1.91 -0.01,-3.03 -2.24,-5.55 -5.34,-5.55"
   id="path3788"
   inkscape:connector-curvature="0"
   style="fill:#ffffff" />
	<polygon
   class="st1"
   points="231.49,231.29 236.44,231.29 236.44,233.19 229.41,233.19 229.41,218.94 231.49,218.94 "
   id="polygon3790"
   style="fill:#ffffff" />
	<path
   class="st1"
   d="m 262.69,230.77 c -0.79,1.81 -2.54,2.43 -4.39,2.43 h -4.26 v -14.25 h 3.7 c 1.81,0 3.47,0.62 4.16,2.39 0.19,0.5 0.29,1.04 0.29,1.56 0,1.18 -0.4,1.94 -1.27,2.7 1.35,0.77 2.12,1.87 2.12,3.46 0,0.59 -0.12,1.17 -0.35,1.71 m -4.99,-9.92 h -1.58 v 4.03 h 1.7 c 1.35,0 2.29,-0.58 2.29,-2 0,-1.53 -1.08,-2.03 -2.41,-2.03 m 2.76,6.8 c -0.6,-0.79 -1.4,-0.87 -2.33,-0.87 h -2 v 4.51 h 2.25 c 1.35,0 2.58,-0.77 2.58,-2.23 0,-0.51 -0.19,-1.03 -0.5,-1.41"
   id="path3792"
   inkscape:connector-curvature="0"
   style="fill:#ffffff" />
	<path
   class="st1"
   d="m 273.78,227.61 c -0.42,0.15 -0.92,0.27 -1.39,0.27 l 3.99,5.31 h -2.6 l -4.7,-6.61 h -0.04 v 6.61 h -2.08 v -14.25 h 4.41 c 1.35,0 2.79,0.21 3.79,1.2 0.91,0.87 1.31,2.14 1.31,3.37 0.01,1.92 -0.84,3.44 -2.69,4.1 m -2.54,-6.76 h -2.2 v 5.45 h 1.43 c 1.85,0 3.93,-0.52 3.93,-2.79 0,-1.81 -1.51,-2.66 -3.16,-2.66"
   id="path3794"
   inkscape:connector-curvature="0"
   style="fill:#ffffff" />
	<path
   class="st1"
   d="m 288.43,232.25 c -0.9,0.81 -2.12,1.21 -3.33,1.21 -1.21,0 -2.43,-0.4 -3.33,-1.21 -1.06,-0.94 -1.45,-2.27 -1.45,-3.66 v -9.65 h 2.08 v 9.59 c 0,1.7 0.93,3.02 2.7,3.02 1.77,0 2.7,-1.33 2.7,-3.02 v -9.59 h 2.08 v 9.65 c -0.01,1.39 -0.39,2.71 -1.45,3.66"
   id="path3796"
   inkscape:connector-curvature="0"
   style="fill:#ffffff" />
	<path
   class="st1"
   d="m 297.98,233.46 c -2.6,0 -4.39,-1.91 -4.39,-4.49 h 2.08 c 0,1.39 0.81,2.58 2.31,2.58 1.42,0 2.29,-1.02 2.29,-2.41 0,-1.52 -1.1,-1.87 -2.29,-2.33 -2.21,-0.85 -3.99,-1.5 -3.99,-4.28 0,-2.21 1.81,-3.87 3.99,-3.87 2.37,0 4.08,1.56 4.08,3.97 h -2.08 c 0,-1.23 -0.77,-2.06 -2,-2.06 -1.04,0 -1.91,0.91 -1.91,1.95 0,3.02 6.28,1.21 6.28,6.63 0,2.56 -1.83,4.31 -4.37,4.31"
   id="path3798"
   inkscape:connector-curvature="0"
   style="fill:#ffffff" />
	<path
   class="st1"
   d="m 309.81,233.46 c -2.6,0 -4.39,-1.91 -4.39,-4.49 h 2.08 c 0,1.39 0.81,2.58 2.31,2.58 1.43,0 2.29,-1.02 2.29,-2.41 0,-1.52 -1.1,-1.87 -2.29,-2.33 -2.21,-0.85 -3.99,-1.5 -3.99,-4.28 0,-2.21 1.81,-3.87 3.99,-3.87 2.37,0 4.08,1.56 4.08,3.97 h -2.08 c 0,-1.23 -0.77,-2.06 -2,-2.06 -1.04,0 -1.91,0.91 -1.91,1.95 0,3.02 6.28,1.21 6.28,6.63 0.01,2.56 -1.82,4.31 -4.37,4.31"
   id="path3800"
   inkscape:connector-curvature="0"
   style="fill:#ffffff" />
	<polygon
   class="st1"
   points="320.17,231.29 325.77,231.29 325.77,233.19 318.09,233.19 318.09,218.94 325.77,218.94 325.77,220.85 320.17,220.85 320.17,225.05 325.77,225.05 325.77,226.95 320.17,226.95 "
   id="polygon3802"
   style="fill:#ffffff" />
	<polygon
   class="st1"
   points="332.18,231.29 337.13,231.29 337.13,233.19 330.1,233.19 330.1,218.94 332.18,218.94 "
   id="polygon3804"
   style="fill:#ffffff" />
</g>
</svg>